<mxfile host="Electron" modified="2024-02-10T22:08:07.148Z" agent="Mozilla/5.0 (X11; Linux x86_64) AppleWebKit/537.36 (KHTML, like Gecko) draw.io/22.1.18 Chrome/120.0.6099.199 Electron/28.1.2 Safari/537.36" etag="9ue74xn3PlGqGCk14R8Z" version="22.1.18" type="device">
  <diagram name="producto" id="ObPCLliFK1BJr1rXw3gn">
    <mxGraphModel dx="1432" dy="1011" grid="1" gridSize="10" guides="1" tooltips="1" connect="1" arrows="1" fold="1" page="1" pageScale="1" pageWidth="1100" pageHeight="850" math="0" shadow="0">
      <root>
        <mxCell id="0" />
        <mxCell id="1" parent="0" />
        <mxCell id="9VNZWG8HXcgkewiwuiYr-17" value="" style="rounded=1;whiteSpace=wrap;html=1;hachureGap=4;fontFamily=Architects Daughter;fontSource=https%3A%2F%2Ffonts.googleapis.com%2Fcss%3Ffamily%3DArchitects%2BDaughter;fontSize=20;fillColor=#f5f5f5;fontColor=#333333;strokeColor=#666666;arcSize=3;" parent="1" vertex="1">
          <mxGeometry x="120" y="150" width="760" height="550" as="geometry" />
        </mxCell>
        <mxCell id="9VNZWG8HXcgkewiwuiYr-16" value="" style="rounded=1;whiteSpace=wrap;html=1;hachureGap=4;fontFamily=Architects Daughter;fontSource=https%3A%2F%2Ffonts.googleapis.com%2Fcss%3Ffamily%3DArchitects%2BDaughter;fontSize=20;fillColor=#f5f5f5;fontColor=#333333;strokeColor=#666666;arcSize=5;" parent="1" vertex="1">
          <mxGeometry x="950" y="150" width="330" height="550" as="geometry" />
        </mxCell>
        <mxCell id="9VNZWG8HXcgkewiwuiYr-1" value="Estrategias y herramientas didácticas" style="rounded=1;whiteSpace=wrap;html=1;hachureGap=4;fontFamily=Architects Daughter;fontSource=https%3A%2F%2Ffonts.googleapis.com%2Fcss%3Ffamily%3DArchitects%2BDaughter;fontSize=20;verticalAlign=top;fillColor=#d5e8d4;strokeColor=#82b366;fontStyle=1;" parent="1" vertex="1">
          <mxGeometry x="130" y="440" width="740" height="250" as="geometry" />
        </mxCell>
        <mxCell id="9VNZWG8HXcgkewiwuiYr-2" value="&lt;div style=&quot;text-align: center;&quot;&gt;&lt;b&gt;Material didáctico&lt;/b&gt;&lt;/div&gt;&lt;ul&gt;&lt;li&gt;Guías para el desarroollo de actividades síncronas&lt;/li&gt;&lt;li&gt;Guías de actividades de aprendizaje asíncrono&lt;/li&gt;&lt;li&gt;Material concreto&lt;/li&gt;&lt;/ul&gt;" style="rounded=1;whiteSpace=wrap;html=1;hachureGap=4;fontFamily=Architects Daughter;fontSource=https%3A%2F%2Ffonts.googleapis.com%2Fcss%3Ffamily%3DArchitects%2BDaughter;fontSize=20;align=left;fillColor=#fff2cc;strokeColor=#d6b656;" parent="1" vertex="1">
          <mxGeometry x="490" y="480" width="360" height="200" as="geometry" />
        </mxCell>
        <mxCell id="9VNZWG8HXcgkewiwuiYr-3" value="&lt;div style=&quot;text-align: center;&quot;&gt;&lt;b&gt;Acciones didácticas&lt;/b&gt;&lt;/div&gt;&lt;ul&gt;&lt;li&gt;Encuentros sincrónicos&lt;/li&gt;&lt;li&gt;Encuentros asíncronos&lt;/li&gt;&lt;li&gt;Actividades de formación&lt;/li&gt;&lt;/ul&gt;" style="rounded=1;whiteSpace=wrap;html=1;hachureGap=4;fontFamily=Architects Daughter;fontSource=https%3A%2F%2Ffonts.googleapis.com%2Fcss%3Ffamily%3DArchitects%2BDaughter;fontSize=20;align=left;fillColor=#ffe6cc;strokeColor=#d79b00;" parent="1" vertex="1">
          <mxGeometry x="170" y="480" width="290" height="200" as="geometry" />
        </mxCell>
        <mxCell id="9VNZWG8HXcgkewiwuiYr-4" value="Ejes temáticos" style="rounded=1;whiteSpace=wrap;html=1;hachureGap=4;fontFamily=Architects Daughter;fontSource=https%3A%2F%2Ffonts.googleapis.com%2Fcss%3Ffamily%3DArchitects%2BDaughter;fontSize=20;verticalAlign=top;fontStyle=1;fillColor=#dae8fc;strokeColor=#6c8ebf;" parent="1" vertex="1">
          <mxGeometry x="130" y="220" width="740" height="210" as="geometry" />
        </mxCell>
        <mxCell id="9VNZWG8HXcgkewiwuiYr-5" value="Apropiación social de la ciencia y la tecnología" style="rounded=1;whiteSpace=wrap;html=1;hachureGap=4;fontFamily=Architects Daughter;fontSource=https%3A%2F%2Ffonts.googleapis.com%2Fcss%3Ffamily%3DArchitects%2BDaughter;fontSize=20;fillColor=#d5e8d4;strokeColor=#82b366;" parent="1" vertex="1">
          <mxGeometry x="160" y="260" width="170" height="95" as="geometry" />
        </mxCell>
        <mxCell id="9VNZWG8HXcgkewiwuiYr-9" style="edgeStyle=orthogonalEdgeStyle;rounded=0;hachureGap=4;orthogonalLoop=1;jettySize=auto;html=1;exitX=0;exitY=0.5;exitDx=0;exitDy=0;fontFamily=Architects Daughter;fontSource=https%3A%2F%2Ffonts.googleapis.com%2Fcss%3Ffamily%3DArchitects%2BDaughter;fontSize=16;" parent="1" source="9VNZWG8HXcgkewiwuiYr-6" target="9VNZWG8HXcgkewiwuiYr-8" edge="1">
          <mxGeometry relative="1" as="geometry" />
        </mxCell>
        <mxCell id="9VNZWG8HXcgkewiwuiYr-6" value="Temas en la enseñanza de la música" style="rounded=1;whiteSpace=wrap;html=1;hachureGap=4;fontFamily=Architects Daughter;fontSource=https%3A%2F%2Ffonts.googleapis.com%2Fcss%3Ffamily%3DArchitects%2BDaughter;fontSize=20;fillColor=#f8cecc;strokeColor=#b85450;" parent="1" vertex="1">
          <mxGeometry x="650" y="260" width="170" height="95" as="geometry" />
        </mxCell>
        <mxCell id="9VNZWG8HXcgkewiwuiYr-10" style="edgeStyle=orthogonalEdgeStyle;rounded=0;hachureGap=4;orthogonalLoop=1;jettySize=auto;html=1;exitX=1;exitY=0.5;exitDx=0;exitDy=0;fontFamily=Architects Daughter;fontSource=https%3A%2F%2Ffonts.googleapis.com%2Fcss%3Ffamily%3DArchitects%2BDaughter;fontSize=16;entryX=0.5;entryY=0;entryDx=0;entryDy=0;" parent="1" source="9VNZWG8HXcgkewiwuiYr-7" target="9VNZWG8HXcgkewiwuiYr-8" edge="1">
          <mxGeometry relative="1" as="geometry">
            <mxPoint x="600" y="100" as="targetPoint" />
          </mxGeometry>
        </mxCell>
        <mxCell id="9VNZWG8HXcgkewiwuiYr-7" value="Temas en la enseñanza de la programación" style="rounded=1;whiteSpace=wrap;html=1;hachureGap=4;fontFamily=Architects Daughter;fontSource=https%3A%2F%2Ffonts.googleapis.com%2Fcss%3Ffamily%3DArchitects%2BDaughter;fontSize=20;fillColor=#e1d5e7;strokeColor=#9673a6;" parent="1" vertex="1">
          <mxGeometry x="370" y="260" width="170" height="95" as="geometry" />
        </mxCell>
        <mxCell id="9VNZWG8HXcgkewiwuiYr-8" value="Relación entre conceptos musicales y programación" style="rounded=1;whiteSpace=wrap;html=1;hachureGap=4;fontFamily=Architects Daughter;fontSource=https%3A%2F%2Ffonts.googleapis.com%2Fcss%3Ffamily%3DArchitects%2BDaughter;fontSize=15;fillColor=#f5f5f5;fontColor=#333333;strokeColor=#666666;" parent="1" vertex="1">
          <mxGeometry x="500" y="370" width="210" height="50" as="geometry" />
        </mxCell>
        <mxCell id="9VNZWG8HXcgkewiwuiYr-11" value="&lt;br&gt;&lt;b&gt;Iniciativa/producto&lt;/b&gt;&lt;br&gt;&lt;ul&gt;&lt;li style=&quot;text-align: left;&quot;&gt;Documentación del proceso&lt;/li&gt;&lt;li style=&quot;text-align: left;&quot;&gt;Artefacto&lt;/li&gt;&lt;/ul&gt;" style="rounded=1;whiteSpace=wrap;html=1;hachureGap=4;fontFamily=Architects Daughter;fontSource=https%3A%2F%2Ffonts.googleapis.com%2Fcss%3Ffamily%3DArchitects%2BDaughter;fontSize=20;fillColor=#e1d5e7;strokeColor=#9673a6;" parent="1" vertex="1">
          <mxGeometry x="960" y="490" width="310" height="100" as="geometry" />
        </mxCell>
        <mxCell id="9VNZWG8HXcgkewiwuiYr-12" value="Metodología ABF" style="rounded=1;whiteSpace=wrap;html=1;hachureGap=4;fontFamily=Architects Daughter;fontSource=https%3A%2F%2Ffonts.googleapis.com%2Fcss%3Ffamily%3DArchitects%2BDaughter;fontSize=20;fillColor=#d5e8d4;strokeColor=#82b366;fontStyle=1;" parent="1" vertex="1">
          <mxGeometry x="560" y="160" width="310" height="50" as="geometry" />
        </mxCell>
        <mxCell id="9VNZWG8HXcgkewiwuiYr-13" value="Aprendizaje en el desarrollo de competencias del siglo XXI" style="rounded=1;whiteSpace=wrap;html=1;hachureGap=4;fontFamily=Architects Daughter;fontSource=https%3A%2F%2Ffonts.googleapis.com%2Fcss%3Ffamily%3DArchitects%2BDaughter;fontSize=20;fillColor=#e1d5e7;strokeColor=#9673a6;fontStyle=1;" parent="1" vertex="1">
          <mxGeometry x="960" y="300" width="310" height="100" as="geometry" />
        </mxCell>
        <mxCell id="9VNZWG8HXcgkewiwuiYr-14" value="&lt;b&gt;Estudiante/Profesor&lt;/b&gt;" style="shape=umlActor;verticalLabelPosition=bottom;verticalAlign=top;html=1;outlineConnect=0;hachureGap=4;fontFamily=Architects Daughter;fontSource=https%3A%2F%2Ffonts.googleapis.com%2Fcss%3Ffamily%3DArchitects%2BDaughter;fontSize=20;strokeWidth=4;" parent="1" vertex="1">
          <mxGeometry x="1095" y="170" width="40" height="80" as="geometry" />
        </mxCell>
        <mxCell id="9VNZWG8HXcgkewiwuiYr-15" value="" style="shape=flexArrow;endArrow=classic;html=1;rounded=0;hachureGap=4;fontFamily=Architects Daughter;fontSource=https%3A%2F%2Ffonts.googleapis.com%2Fcss%3Ffamily%3DArchitects%2BDaughter;fontSize=16;endWidth=104;endSize=11.33;width=38;fillColor=#e1d5e7;strokeColor=#9673a6;" parent="1" edge="1">
          <mxGeometry width="50" height="50" relative="1" as="geometry">
            <mxPoint x="880" y="440" as="sourcePoint" />
            <mxPoint x="950" y="440" as="targetPoint" />
          </mxGeometry>
        </mxCell>
      </root>
    </mxGraphModel>
  </diagram>
</mxfile>
